<?xml version="1.0" encoding="UTF-8" standalone="no"?>
<!-- Created with Inkscape (http://www.inkscape.org/) -->

<svg
   xmlns:dc="http://purl.org/dc/elements/1.1/"
   xmlns:cc="http://creativecommons.org/ns#"
   xmlns:rdf="http://www.w3.org/1999/02/22-rdf-syntax-ns#"
   xmlns:svg="http://www.w3.org/2000/svg"
   xmlns="http://www.w3.org/2000/svg"
   xmlns:sodipodi="http://sodipodi.sourceforge.net/DTD/sodipodi-0.dtd"
   xmlns:inkscape="http://www.inkscape.org/namespaces/inkscape"
   width="50"
   height="50"
   viewBox="0 0 50 50"
   id="svg2"
   version="1.1"
   inkscape:version="0.91 r13725"
   sodipodi:docname="Zeichnung.svg">
  <defs
     id="defs4" />
  <sodipodi:namedview
     id="base"
     pagecolor="#ffffff"
     bordercolor="#666666"
     borderopacity="1.0"
     inkscape:pageopacity="0.0"
     inkscape:pageshadow="2"
     inkscape:zoom="11.2"
     inkscape:cx="25.303505"
     inkscape:cy="33.205629"
     inkscape:document-units="px"
     inkscape:current-layer="layer1"
     showgrid="false"
     inkscape:window-width="1680"
     inkscape:window-height="987"
     inkscape:window-x="-8"
     inkscape:window-y="-8"
     inkscape:window-maximized="1"
     fit-margin-top="0.4"
     units="px" />
  <metadata
     id="metadata7">
    <rdf:RDF>
      <cc:Work
         rdf:about="">
        <dc:format>image/svg+xml</dc:format>
        <dc:type
           rdf:resource="http://purl.org/dc/dcmitype/StillImage" />
        <dc:title></dc:title>
      </cc:Work>
    </rdf:RDF>
  </metadata>
  <g
     inkscape:label="Ebene 1"
     inkscape:groupmode="layer"
     id="layer1"
     transform="translate(0,-1002.3622)">
    <g
       id="g4928"
       transform="matrix(0.14565936,0,0,0.14565936,-0.40549717,999.88781)">
      <path
         style="fill-opacity:1"
         d="m 12.678574,290.35522 0,-11.30194 3.284823,0.35981 c 2.686082,0.29423 3.733718,-0.4946 5.747548,-4.32769 2.633881,-5.01327 2.110957,-4.85568 17.217629,-5.18856 l 5.625,-0.124 0.382913,-7.45676 c 0.210603,-4.10123 0.829865,-8.03873 1.376137,-8.75 0.546272,-0.71129 0.921002,-4.00011 0.832733,-7.30853 -0.159666,-5.98443 1.67157,-9.3488 4.22846,-7.76855 0.717617,0.44358 1.304757,4.14825 1.304757,8.23268 0,4.11749 0.556935,7.42622 1.25,7.42622 0.726505,0 1.25,4.0836 1.25,9.7508 0,11.73069 1.811091,16.47565 6.293811,16.48945 3.030536,0.009 3.166899,-0.30388 3.125,-7.17775 l -0.04381,-7.1875 4.375,0 4.375,0 0.380548,6.64105 c 0.312642,5.45599 0.758754,6.56918 2.5,6.23829 1.610363,-0.30601 2.210204,-1.97624 2.497277,-6.95355 l 0.377823,-6.55079 4.309677,0 4.309675,0 0,7.5 c 0,5.83334 0.416666,7.5 1.875,7.5 1.03125,0 2.296875,0.14063 2.8125,0.3125 0.515625,0.17188 1.21875,-2.78125 1.5625,-6.5625 0.454545,-5 1.136363,-6.875 2.5,-6.875 1.116236,0 2.03506,1.39107 2.270527,3.4375 0.26677,2.31847 1.121901,3.4375 2.626838,3.4375 1.90384,0 2.33589,-1.51343 2.94395,-10.3125 0.88799,-12.84973 0.18055,-16.70388 -3.27787,-17.85783 l -2.688445,-0.89704 2.812495,-0.55325 c 3.06661,-0.60324 3.7333,-2.33341 1.25,-3.24396 -1.19691,-0.43887 -1.21977,-0.93758 -0.0977,-2.13149 0.80565,-0.85721 1.18917,-2.27688 0.85228,-3.1548 -0.3369,-0.87794 -0.0116,-1.96759 0.72268,-2.42146 0.73438,-0.45387 1.33522,-2.10628 1.33522,-3.67204 0,-2.17284 -1.55369,-3.64499 -6.562495,-6.21814 -7.785487,-3.99957 -16.191633,-8.92394 -22.927572,-13.43109 -5.75198,-3.84876 -20.509928,-17.98746 -20.509928,-19.64931 0,-0.63304 -0.827544,-1.83777 -1.838985,-2.6772 -2.795805,-2.32031 -9.363289,-16.16619 -10.225432,-21.55772 -0.42018,-2.62767 -1.252578,-5.07955 -1.849773,-5.44864 -1.738217,-1.07428 -1.256073,-14.43281 0.896615,-24.8421 1.821575,-8.80821 6.695835,-20.19719 10.740765,-25.0964 10.703853,-12.964471 26.851005,-27.040651 35.138326,-30.631617 1.519916,-0.658592 3.607234,-1.741204 4.638484,-2.405804 8.262035,-5.324557 29.635435,-12.476161 47.499995,-15.893643 25.0063,-4.783693 70.66057,-2.42068 89.375,4.625947 3.4375,1.294336 7.9375,2.742864 10,3.21895 3.61888,0.835343 8.36544,2.934056 16.25,7.18501 2.0625,1.111994 5.48228,2.843031 7.59952,3.84675 2.11722,1.003719 4.57672,2.701191 5.46555,3.772161 0.88882,1.07097 2.12056,1.947219 2.73718,1.947219 3.0859,0 14.05073,10.310805 24.23889,22.793127 8.31361,10.18564 12.95029,22.62689 13.9418,37.40896 0.65768,9.80493 0.38969,11.7521 -2.83857,20.625 -1.96064,5.38885 -4.8731,12.14683 -6.47214,15.01771 -3.79103,6.80637 -17.88973,21.98872 -24.89499,26.80847 -4.46624,3.07285 -5.36169,4.30456 -4.7299,6.50608 1.18795,4.1395 5.23586,12.0853 9.34346,18.34065 2.03154,3.09375 4.07719,6.46875 4.5459,7.5 0.46873,1.03125 3.57159,6.43482 6.89527,12.00793 3.32367,5.57311 6.04303,10.49499 6.04303,10.9375 0,0.44251 -11.20145,0.80457 -24.89211,0.80457 l -24.89212,0 -6.40164,-11.875 c -3.5209,-6.53125 -6.949,-11.875 -7.618,-11.875 -0.669,0 -2.13485,-2.29552 -3.25745,-5.10116 -1.1226,-2.80565 -2.38366,-4.59471 -2.80238,-3.97571 -0.68037,1.00582 -7.40616,2.364 -23.53382,4.75231 l -5.27253,0.7808 -0.35247,13.95938 -0.35248,13.95938 -12.8125,0.35623 -12.8125,0.35624 0,3.70626 c 0,2.31471 0.64653,3.70627 1.72195,3.70627 0.94707,0 2.4522,0.87992 3.34474,1.95537 1.03666,1.2491 2.68208,1.68948 4.55551,1.21928 2.06573,-0.51846 3.17164,-0.11337 3.74097,1.37024 0.70035,1.8251 0.94162,1.74576 1.80726,-0.5943 0.74421,-2.01177 2.04546,-2.7037 5.1018,-2.7128 2.25652,-0.006 7.11175,-1.41296 10.7894,-3.125 8.35129,-3.88774 11.14181,-3.96706 11.66394,-0.33157 0.21968,1.52966 1.74105,3.44753 3.3808,4.26195 1.63975,0.81441 3.43728,2.21845 3.99453,3.12008 1.39137,2.25128 2.52872,0.79584 3.75194,-4.8012 2.3708,-10.84797 2.78669,-12.30552 3.9215,-13.74357 1.83945,-2.33095 5.9675,0.83931 6.01541,4.61971 0.0219,1.72525 0.85408,4.2129 1.84934,5.52813 2.10531,2.78211 8.22055,3.80928 9.61519,1.61506 0.73622,-1.15833 0.96186,-1.14536 0.97659,0.0561 0.0319,2.59778 2.16447,1.75337 3.15703,-1.25 l 0.92948,-2.8125 0.5798,3.01514 c 0.45101,2.34536 0.83227,2.62304 1.71631,1.25 0.71801,-1.11516 1.48173,-1.30485 2.07401,-0.51514 1.35383,1.8051 5.74035,1.94794 6.83762,0.22265 0.7017,-1.1033 0.94141,-1.08076 0.95575,0.0899 0.01,0.85937 1.03163,1.5625 2.26913,1.5625 3.83579,0 5.25,2.72527 5.25,10.11709 l 0,7.11708 5.10812,-1.29657 c 2.80945,-0.71311 5.39965,-2.05633 5.75597,-2.98491 0.35634,-0.92858 1.23835,-1.3234 1.96003,-0.87738 0.72168,0.44603 0.95073,0.22616 0.50898,-0.48859 -0.99831,-1.61532 1.5006,-9.08672 3.03919,-9.08672 0.62024,0 1.1524,-0.98438 1.18258,-2.1875 0.0301,-1.20313 0.80588,-0.0832 1.7238,2.48865 0.91791,2.57187 2.61365,6.11796 3.7683,7.88017 1.87125,2.85589 2.8045,3.16472 8.5887,2.84219 l 6.48933,-0.36186 0.19574,-4.83906 c 0.10763,-2.66148 0.81078,-5.4541 1.5625,-6.20583 0.75171,-0.75174 1.36676,-2.66054 1.36676,-4.24179 0,-1.58125 0.5625,-2.875 1.25,-2.875 0.6875,0 1.25,1.43609 1.25,3.19132 0,1.75522 1.40625,5.2608 3.125,7.79017 1.71875,2.52936 3.13752,5.1714 3.1528,5.87118 0.0766,3.50863 4.95823,7.25217 11.32737,8.68662 5.31966,1.1981 6.76983,2.03999 6.76983,3.93021 0,2.36018 -3.09146,2.41148 -164.0625,2.72263 l -164.062495,0.31714 0,-11.30195 z m 317.320946,7.6798 c 2.19573,-1.39128 0.56632,-2.34577 -5.72068,-3.35109 -5.02617,-0.80373 -7.60204,0.5818 -5.97527,3.21397 0.94239,1.52482 9.35032,1.62338 11.69595,0.13712 z m -17.32095,-1.10898 c 0,-0.53454 -0.87565,-2.22204 -1.94587,-3.75 -1.64419,-2.34741 -3.11193,-2.77814 -9.46666,-2.77814 -6.48847,0 -7.46298,0.30013 -7.0997,2.18649 0.38996,2.02486 2.97791,2.78484 17.57473,5.1609 0.51563,0.0839 0.9375,-0.28472 0.9375,-0.81925 z m 3.4312,-4.22516 c -2.21436,-1.36855 -3.59823,0.12237 -1.85625,1.99977 1.10092,1.18653 1.80258,1.26749 2.42157,0.27942 0.47933,-0.76515 0.22495,-1.79079 -0.56532,-2.27919 z m -24.6812,-1.05298 c 0,-0.6875 -0.84375,-1.25 -1.875,-1.25 -1.03125,0 -1.875,0.5625 -1.875,1.25 0,0.6875 0.84375,1.25 1.875,1.25 1.03125,0 1.875,-0.5625 1.875,-1.25 z m 25.5954,-6.38477 -0.8925,-4.06355 -1.68216,3.03666 c -2.22399,4.0148 -2.17414,4.63863 0.41676,5.21493 3.03422,0.6749 3.16867,0.41395 2.1579,-4.18804 z m 4.55719,1.79102 c -1.47355,-2.53401 -1.82939,-1.72293 -0.62316,1.42043 0.42867,1.11712 1.04274,1.76782 1.36457,1.44599 0.32184,-0.32184 -0.0112,-1.61173 -0.74141,-2.86642 z m -30.15259,-1.58247 c 0,-3.33655 -2.0727,-4.34278 -2.84693,-1.3821 -0.64934,2.4831 -0.0211,3.80832 1.80527,3.80832 0.57291,0 1.04166,-1.0918 1.04166,-2.42622 z m -151.5,-7.82378 c 0.825,-0.825 1.49629,-3.49687 1.49174,-5.9375 -0.0129,-6.91842 2.8151,-23.7704 3.87868,-23.11307 0.52503,0.32449 1.34005,3.67486 1.81113,7.44527 1.3766,11.01799 3.06845,7.90568 3.06845,-5.6447 0,-6.875 -0.42187,-12.50077 -0.9375,-12.50171 -0.51562,-9.4e-4 -5.71875,-0.88627 -11.5625,-1.96742 -5.84375,-1.08114 -11.46875,-2.10453 -12.5,-2.27419 -1.03125,-0.16965 -3,-0.74556 -4.375,-1.27979 -7.80915,-3.03409 -12.07341,-4.47689 -13.23167,-4.47689 -0.81451,0 -1.15783,3.05702 -0.9122,8.12244 0.32737,6.75108 0.7632,8.12288 2.58137,8.125 2.81188,0.004 2.75511,0.68495 -0.3125,3.75256 -2.18254,2.18254 -2.5,4.16667 -2.5,15.625 l 0,13.125 7.32065,0 7.32065,0 0.87085,-11.5625 c 1.4733,-19.56155 5.68722,-18.17993 5.71872,1.875 l 0.0191,12.1875 5.375,0 c 2.95625,0 6.05,-0.675 6.875,-1.5 z m 23.77455,-2.24993 c 2.03073,-1.69262 2.77983,-3.45925 2.5,-5.89592 -0.33823,-2.94525 -1.05037,-3.5413 -4.64061,-3.88416 l -4.24107,-0.40502 0.78981,4.78002 c 0.4344,2.629 0.796,5.48314 0.80356,6.34251 0.019,2.16317 1.39045,1.89468 4.78831,-0.93743 z m -12.62757,-7.17038 c -0.28731,-1.90007 -0.53008,-0.64219 -0.53946,2.79531 -0.01,3.4375 0.2257,4.99212 0.5224,3.45469 0.2967,-1.53742 0.30438,-4.34992 0.017,-6.25 z m 5.58219,-6.85052 c -0.89695,-0.89695 -1.47917,-0.97075 -1.47917,-0.1875 0,1.66847 1.47827,3.14673 2.3125,2.3125 0.35522,-0.3552 -0.0198,-1.31145 -0.83333,-2.125 z m 12.27083,0.27083 c 0,-0.6875 -0.24805,-1.25 -0.55122,-1.25 -0.30318,0 -0.89888,0.5625 -1.32378,1.25 -0.4249,0.6875 -0.17685,1.25 0.55123,1.25 0.72807,0 1.32377,-0.5625 1.32377,-1.25 z m 44.6875,-46.23623 c 3.82592,-0.01 5.3125,-0.52614 5.3125,-1.84479 0,-2.91024 -4.23973,-4.41898 -12.41782,-4.41898 l -7.58218,0 0,3.91355 c 0,3.82674 0.104,3.89637 4.6875,3.13877 2.57813,-0.42614 7.07813,-0.78099 10,-0.78855 z m -14.07048,-101.26377 49.33765,0 10.575,4.88567 c 18.45307,8.52535 25.09533,18.48115 25.09533,37.61433 0,12.04208 -2.25823,18.1167 -10.17176,27.36188 -4.6191,5.39637 -17.61952,12.63812 -22.68802,12.63812 -4.54465,0 -4.29433,2.34983 0.46205,4.33718 6.27825,2.62321 12.23312,2.40507 15.72905,-0.57618 1.60527,-1.36895 5.05315,-4.13991 7.66192,-6.1577 5.19493,-4.01806 8.61276,-8.67785 13.36998,-18.2283 2.76776,-5.55645 3.10578,-7.7758 3.0462,-20 -0.0591,-12.12448 -0.45082,-14.56276 -3.31348,-20.625 -4.16532,-8.82087 -8.12902,-14.0396 -14.21894,-18.72107 -2.68235,-2.062 -5.52168,-4.28588 -6.30962,-4.94197 -2.11454,-1.76068 -10.85981,-6.33696 -12.10995,-6.33696 -0.59379,0 -2.85211,-0.81326 -5.01851,-1.80726 -2.1664,-0.99399 -9.00142,-3.05252 -15.18892,-4.574498 -13.42558,-3.302383 -48.95797,-4.772586 -60.5056,-2.503506 -3.84692,0.75591 -11.21315,2.208236 -16.3694,3.22739 -28.42502,5.618324 -54.84339,23.820324 -61.242153,42.195254 -7.185258,20.63346 -1.712593,35.17692 19.743483,52.46777 4.42021,3.56212 19.2444,11.21223 25.87367,13.35227 l 6.25,2.01758 0.32718,-47.8125 0.32719,-47.8125 49.33765,0 z m 34.77412,55.2441 c 4.40059,-4.59322 4.7118,-13.01783 0.64098,-17.35103 -2.57728,-2.74338 -3.57974,-2.89307 -19.375,-2.89307 l -16.65712,0 0,11.875 0,11.875 16.01614,0 c 15.91618,0 16.0371,-0.0219 19.375,-3.5059 z"
         id="path4932"
         inkscape:connector-curvature="0" />
      <path
         style="fill-opacity:1"
         d="m 12.980922,291.00295 c 0.580369,-10.82188 1.502907,-13.75171 3.375864,-10.7212 1.44799,2.34289 2.949329,1.09532 5.773053,-4.79727 2.61677,-5.46073 3.367616,-5.67696 17.736235,-5.10809 l 5.3125,0.21034 0,-7.52064 c 0,-4.13636 0.48822,-7.82239 1.084933,-8.19117 0.596713,-0.36879 1.15914,-3.88942 1.249837,-7.8236 0.0907,-3.9342 0.638817,-7.627 1.218043,-8.20623 2.43443,-2.43442 3.843757,3.21161 4.608998,18.46455 0.969836,19.33094 2.645955,24.33826 8.146835,24.33826 l 3.691354,0 0,-8.125 0,-8.125 3.684675,0 c 3.563695,0 3.697081,0.21548 4.0625,6.5625 0.349235,6.06592 0.614295,6.5625 3.502825,6.5625 2.893321,0 3.153207,-0.4922 3.505476,-6.63896 0.366499,-6.39507 0.504267,-6.62469 3.75,-6.25 3.215961,0.37124 3.386577,0.7486 3.743717,8.28031 0.34732,7.32463 0.571748,7.86325 3.125,7.5 2.376853,-0.33815 2.802169,-1.28347 3.128632,-6.95385 0.271787,-4.72073 0.88571,-6.5625 2.1875,-6.5625 0.995321,0 1.809675,1.05613 1.809675,2.34695 0,2.96573 3.431166,5.97189 5.011936,4.39112 0.63579,-0.6358 1.41858,-7.1932 1.73952,-14.57203 0.5494,-12.63124 0.44212,-13.41604 -1.83396,-13.41604 -1.32962,0 -2.4175,-0.5625 -2.4175,-1.25 0,-0.6875 1.00447,-1.25 2.23215,-1.25 1.37761,0 2.23214,-0.93056 2.23214,-2.43075 0,-1.83888 -0.39133,-2.10598 -1.60714,-1.09695 -1.1325,0.93989 -1.60715,0.94123 -1.60715,0.005 0,-0.7311 0.53794,-1.66174 1.19541,-2.06809 0.65747,-0.40634 0.90038,-1.50764 0.53978,-2.44732 -0.36059,-0.9397 -0.0548,-2.07988 0.6796,-2.53375 0.73437,-0.45387 1.33521,-2.10628 1.33521,-3.67204 0,-2.17284 -1.55369,-3.64499 -6.562496,-6.21814 -7.925222,-4.07136 -16.336787,-9.01025 -22.927572,-13.46204 -5.502377,-3.71662 -20.509928,-18.16096 -20.509928,-19.74023 0,-0.566 -0.827544,-1.7159 -1.838985,-2.55533 -2.795805,-2.32031 -9.363289,-16.16619 -10.225432,-21.55772 -0.42018,-2.62767 -1.252578,-5.07955 -1.849773,-5.44864 -1.738217,-1.07428 -1.256073,-14.43281 0.896615,-24.8421 1.821575,-8.80821 6.695835,-20.19719 10.740765,-25.0964 10.703853,-12.964471 26.851005,-27.040651 35.138326,-30.631617 1.519916,-0.658592 3.607234,-1.741204 4.638484,-2.405804 8.262036,-5.324557 29.635436,-12.476161 47.499996,-15.893643 25.0063,-4.783693 70.66057,-2.42068 89.375,4.625947 3.4375,1.294336 7.9375,2.742864 10,3.21895 3.61888,0.835343 8.36544,2.934056 16.25,7.18501 2.0625,1.111994 5.48228,2.843031 7.59952,3.84675 2.11722,1.003719 4.57672,2.701191 5.46555,3.772161 0.88882,1.07097 2.12056,1.947219 2.73718,1.947219 3.0859,0 14.05073,10.310805 24.23889,22.793127 8.31361,10.18564 12.95029,22.62689 13.9418,37.40896 0.65768,9.80493 0.38969,11.7521 -2.83857,20.625 -1.96064,5.38885 -4.8731,12.14683 -6.47214,15.01771 -3.75941,6.74962 -17.86898,21.97444 -24.75609,26.7129 -4.19854,2.88867 -5.29814,4.37189 -5.0395,6.79769 0.29644,2.78034 11.41401,22.87666 19.06476,34.4618 1.61349,2.4432 2.9336,4.88574 2.9336,5.42784 0,0.54211 1.125,2.41586 2.5,4.16389 1.375,1.74802 2.5,3.66487 2.5,4.25966 0,0.59479 -11.25968,1.08142 -25.02153,1.08142 l -25.02154,0 -3.65814,-7.1875 c -2.01197,-3.95312 -4.87674,-9.57812 -6.36612,-12.5 -1.48939,-2.92187 -3.44002,-5.3125 -4.33472,-5.3125 -0.89471,0 -1.48398,-0.97265 -1.30951,-2.16145 0.17449,-1.1888 -0.44296,-2.92163 -1.37209,-3.85077 -0.92912,-0.92913 -1.39373,-2.16761 -1.03245,-2.75218 0.36129,-0.58457 0.0713,-1.42478 -0.64447,-1.86713 -0.71575,-0.44237 -1.22081,-0.3406 -1.12238,0.22612 0.50299,2.89548 -0.38697,4.11729 -2.92955,4.02191 -1.54687,-0.058 -4.21875,0.25617 -5.9375,0.69819 -1.71875,0.44203 -5.9375,1.13175 -9.375,1.53273 -12.21202,1.42447 -11.875,0.95037 -11.875,16.70466 l 0,13.86396 -12.50272,-0.39552 -12.50273,-0.39552 0.002,3.91874 c 0.004,4.64901 4.14288,7.95626 9.95875,7.95626 2.08669,0 3.79398,0.5625 3.79398,1.25 0,0.6875 0.5625,1.25 1.25,1.25 0.6875,0 1.25,-1.125 1.25,-2.5 0,-2.0199 0.83334,-2.5 4.33936,-2.5 2.38664,0 7.51914,-1.40625 11.40554,-3.125 8.03132,-3.55183 9.23834,-3.7547 9.29669,-1.5625 0.0539,2.02232 4.35996,7.1875 5.99211,7.1875 0.69187,0 1.4792,0.6637 1.7496,1.47489 1.09177,3.27535 4.7167,-0.17295 4.7167,-4.48689 0,-2.38725 0.5625,-4.6881 1.25,-5.113 0.6875,-0.4249 1.25,-2.0331 1.25,-3.57377 0,-4.05321 2.32251,-5.98418 5.28845,-4.39685 1.33012,0.71186 2.10364,2.07386 1.7303,3.04675 -0.9298,2.42304 3.10689,9.11695 5.44746,9.0333 1.04983,-0.0375 2.89316,0.34831 4.09629,0.85741 1.46095,0.6182 2.19386,0.36225 2.20664,-0.7706 0.0158,-1.39861 0.2121,-1.39154 1.11886,0.0404 0.85306,1.34707 1.53847,0.92651 3.05581,-1.875 l 1.95609,-3.61159 0.05,3.18525 c 0.0447,2.84951 0.54415,3.17891 4.73755,3.125 2.90947,-0.0374 5.00977,-0.77146 5.53714,-1.93525 0.67438,-1.48824 0.86777,-1.39619 0.9375,0.44624 0.0532,1.40798 0.7472,2.06822 1.76371,1.67815 3.64279,-1.39787 5.02421,1.26492 4.70565,9.07046 l -0.31214,7.64811 3.52783,-0.85451 c 6.17862,-1.4966 9.15281,-2.88779 9.15281,-4.28129 0,-0.74509 0.64941,-0.95335 1.44314,-0.4628 0.83721,0.51744 1.10591,0.34628 0.63996,-0.40764 -0.96475,-1.561 1.47642,-9.08672 2.94752,-9.08672 0.56984,0 1.29332,-0.98438 1.60772,-2.1875 0.48207,-1.84468 0.59558,-1.7957 0.72436,0.3125 0.084,1.375 0.99,4.10542 2.01336,6.0676 1.02338,1.96217 1.4955,4.15846 1.04916,4.88064 -0.45565,0.73725 -0.21653,0.94533 0.54527,0.47451 0.74622,-0.46119 1.72827,-0.23741 2.18235,0.49729 0.46363,0.75018 3.65256,1.17866 7.27387,0.97733 l 6.44829,-0.3585 0.30696,-5.01758 c 0.16883,-2.75968 0.87195,-5.20593 1.5625,-5.43612 0.69081,-0.2302 1.25581,-2.05916 1.25581,-4.06436 0,-2.00521 0.5625,-3.64584 1.25,-3.64584 0.6875,0 1.25,1.609 1.25,3.57557 0,1.96656 1.34994,5.56481 2.99985,7.9961 1.64993,2.43128 3.38009,5.61852 3.84482,7.08273 1.13656,3.58103 5.17478,6.04279 11.59283,7.06719 4.51872,0.72124 5.3125,1.291 5.3125,3.81318 l 0,2.96523 -163.88426,0 -163.884267,0 0.570879,-10.64495 z m 317.018598,7.03207 c 2.19573,-1.39128 0.56632,-2.34577 -5.72068,-3.35109 -5.02617,-0.80373 -7.60204,0.5818 -5.97527,3.21397 0.94239,1.52482 9.35032,1.62338 11.69595,0.13712 z m -17.32095,-1.10898 c 0,-0.53454 -0.87565,-2.22204 -1.94587,-3.75 -1.64419,-2.34741 -3.11193,-2.77814 -9.46666,-2.77814 -6.48847,0 -7.46298,0.30013 -7.0997,2.18649 0.38996,2.02486 2.97791,2.78484 17.57473,5.1609 0.51563,0.0839 0.9375,-0.28472 0.9375,-0.81925 z m 4.44232,-3.91922 c -0.96899,-1.56785 -4.44232,-1.84848 -4.44232,-0.35892 0,0.55 0.675,1.675 1.5,2.5 1.74749,1.74749 4.22939,-0.0585 2.94232,-2.14108 z m -25.69232,-1.35892 c 0,-0.6875 -0.84375,-1.25 -1.875,-1.25 -1.03125,0 -1.875,0.5625 -1.875,1.25 0,0.6875 0.84375,1.25 1.875,1.25 1.03125,0 1.875,-0.5625 1.875,-1.25 z m 25.68468,-7.08226 c -0.7721,-3.07627 -0.89116,-3.11702 -2.58229,-0.88385 -2.40654,3.17786 -2.2887,5.19324 0.33511,5.73184 2.71152,0.55659 3.29027,-0.69199 2.24718,-4.84799 z m 4.83601,2.88618 c -0.80365,-2.09428 -3.02069,-2.8678 -3.02069,-1.05392 0,1.21609 2.78869,4.12798 3.38359,3.53308 0.23389,-0.23389 0.0706,-1.34951 -0.3629,-2.47916 z m -30.52069,-1.98014 c 0,-2.85546 -1.97077,-4.44135 -3.14938,-2.5343 -1.05005,1.69899 0.173,4.96052 1.86016,4.96052 0.70907,0 1.28922,-1.0918 1.28922,-2.42622 z M 139.68851,278.2104 c 0.91331,-1.20312 1.67844,-4.40363 1.70031,-7.11225 0.0495,-6.13756 2.73433,-19.45025 3.92255,-19.45025 0.48544,0 1.2695,2.81303 1.74237,6.25118 1.38446,10.06627 3.12483,5.87896 3.12483,-7.5183 l 0,-12.36959 -4.0625,-0.66127 c -2.23437,-0.36372 -7.4375,-1.27877 -11.5625,-2.03348 -4.125,-0.7547 -8.34375,-1.50677 -9.375,-1.67126 -1.03125,-0.16449 -3,-0.73616 -4.375,-1.27039 -7.75618,-3.01351 -12.06848,-4.47689 -13.19253,-4.47689 -0.7489,0 -1.17554,3.32222 -1.04341,8.125 0.19256,6.99958 0.5447,8.125 2.54223,8.125 1.27529,0 2.31871,0.5625 2.31871,1.25 0,0.6875 -1.14231,1.25 -2.53847,1.25 -2.43225,0 -2.52379,0.64075 -2.1875,15.3125 l 0.35097,15.3125 7.5,0 7.5,0 0.35877,-12.27025 c 0.31596,-10.80646 0.6142,-12.22035 2.5,-11.85203 2.33433,0.45591 2.45551,1.23232 2.64306,16.93478 l 0.12317,10.3125 5.1747,0 c 3.46235,0 5.72418,-0.72386 6.83524,-2.1875 z m 11.76694,-7.4983 c -0.57888,-6.95785 -0.61158,-7.01363 -1.01635,-1.7337 -0.36788,4.7985 0.21495,8.91613 1.26275,8.9212 0.19345,9.4e-4 0.0826,-3.23343 -0.2464,-7.1875 z m 12.6872,5.11707 c 1.34667,-1.21873 2.28592,-3.78675 2.28592,-6.25 0,-4.05494 -0.15328,-4.18127 -5.07377,-4.18127 -3.05826,0 -4.76743,-0.49567 -4.30258,-1.24781 0.42415,-0.68629 -0.0741,-2.45466 -1.10731,-3.92972 l -1.87849,-2.68193 -0.84405,3.36295 c -0.46422,1.84961 -0.49523,3.71174 -0.0689,4.13806 0.42632,0.42632 0.77859,-0.30301 0.78282,-1.62071 0.0125,-3.83195 3.32475,3.30839 4.35004,9.377 0.93455,5.53153 2.30919,6.24355 5.85634,3.03343 z m 4.78592,-14.18127 c 0,-0.6875 -0.24805,-1.25 -0.55122,-1.25 -0.30318,0 -0.89888,0.5625 -1.32378,1.25 -0.4249,0.6875 -0.17685,1.25 0.55123,1.25 0.72807,0 1.32377,-0.5625 1.32377,-1.25 z m 5,0 c 0,-0.6875 -0.5625,-1.25 -1.25,-1.25 -0.6875,0 -1.25,0.5625 -1.25,1.25 0,0.6875 0.5625,1.25 1.25,1.25 0.6875,0 1.25,-0.5625 1.25,-1.25 z m -2.5,-6.25 c 0,-0.6875 -0.5625,-1.25 -1.25,-1.25 -0.6875,0 -1.25,0.5625 -1.25,1.25 0,0.6875 0.5625,1.25 1.25,1.25 0.6875,0 1.25,-0.5625 1.25,-1.25 z m 47.5546,-40.65873 c 2.06737,-1.27772 -3.59586,-6.8429 -6.01772,-5.91355 -1.07084,0.41092 -1.6292,0.22967 -1.24079,-0.40279 0.4015,-0.65378 -2.75239,-1.14993 -7.30966,-1.14993 -6.16214,0 -7.86794,0.38499 -7.37615,1.66474 0.35185,0.9156 0.63972,2.99461 0.63972,4.62001 0,2.89823 0.1923,2.94642 9.96059,2.49589 5.47833,-0.25265 10.58313,-0.84412 11.34401,-1.31437 z M 200.26702,114.1479 c 37.52072,0 49.8357,0.36147 49.16719,1.44314 -0.54069,0.87484 -0.34412,1.10458 0.49915,0.58341 2.26081,-1.39725 20.29955,7.89905 24.86689,12.81519 17.95422,19.32541 11.26569,52.68159 -12.82185,63.94341 -4.37006,2.04317 -9.37528,3.71485 -11.1227,3.71485 -4.69218,0 -3.83481,2.8435 1.52309,5.05142 5.45031,2.246 12.96705,1.43137 16.26191,-1.76239 1.18957,-1.15308 4.29734,-3.72954 6.90611,-5.72546 5.30379,-4.05783 8.91079,-8.94854 13.41444,-18.18857 2.63154,-5.39906 3.04942,-8.03696 3.06931,-19.375 0.0169,-9.64553 -0.56799,-14.6563 -2.2063,-18.90128 -2.99394,-7.75747 -9.24987,-16.34161 -15.30221,-20.99709 -2.73266,-2.10198 -5.61316,-4.35858 -6.4011,-5.01467 -2.11454,-1.76068 -10.85981,-6.33696 -12.10995,-6.33696 -0.59379,0 -2.85211,-0.81326 -5.01851,-1.80726 -2.1664,-0.99399 -9.00142,-3.05252 -15.18892,-4.574498 -13.42558,-3.302383 -48.95797,-4.772586 -60.5056,-2.503506 -3.84692,0.75591 -11.21315,2.208236 -16.3694,3.22739 -28.42502,5.618324 -54.84339,23.820324 -61.242153,42.195254 -7.185258,20.63346 -1.712593,35.17692 19.743483,52.46777 4.42021,3.56212 19.2444,11.21223 25.87367,13.35227 l 6.25,2.01758 0.32718,-47.8125 0.32719,-47.8125 50.05908,0 z m 64.91155,94.52805 c 0,-0.25956 -0.98437,-1.24393 -2.1875,-2.1875 -1.98257,-1.55483 -2.02678,-1.51062 -0.47195,0.47195 1.63297,2.08219 2.65945,2.74435 2.65945,1.71555 z M 234.31971,169.392 c 4.40059,-4.59322 4.7118,-13.01783 0.64098,-17.35103 -2.57728,-2.74338 -3.57974,-2.89307 -19.375,-2.89307 l -16.65712,0 0,11.875 0,11.875 16.01614,0 c 15.91618,0 16.0371,-0.0219 19.375,-3.5059 z"
         id="path4930"
         inkscape:connector-curvature="0" />
    </g>
  </g>
</svg>
